# xmcd
#
# Track frame offsets: 
#        150
#        19875
#        44700
#        62250
#        83175
#        103650
#        123825
#        148050
#        175050
#        193125
#
# Disc length: 2811 seconds
#
# Revision: 0
# Processed by: cddbd v1.5.2PL0 Copyright (c) Steve Scherf et al.
# Submitted via: ExactAudioCopy v0.99pb4
#
DISCID=880af90a
DTITLE=Tuan Ngoc, Y Lan - Loi Yeu Thuong
DYEAR=1900
DGENRE=Blues
TTITLE0=Loi Yeu Thuong
TTITLE1=Bang Khuang Chieu Noi Tru
TTITLE2=Ben Mo
TTITLE3=Giot Nuoc Mat Nga
TTITLE4=On Em
TTITLE5=Mua Xuan Trong Mat Em
TTITLE6=Van Co Em Ben Doi
TTITLE7=Thuong Nhau Ngay Mua
TTITLE8=Dung Yeu Toi
TTITLE9=Loi Tinh Buon
EXTD=
EXTT0=
EXTT1=
EXTT2=
EXTT3=
EXTT4=
EXTT5=
EXTT6=
EXTT7=
EXTT8=
EXTT9=
PLAYORDER=
